<svg width="0" height="0" class="hidden" xmlns="http://www.w3.org/2000/svg">
  <symbol version="1.1" id="car" xmlns:xlink="http://www.w3.org/1999/xlink" viewBox="0 0 150 46">
    <path fill-rule="evenodd" clip-rule="evenodd" d="M28.6377 17.7705C21.3989 17.7705 15.5396 24.058 15.5396 31.8256C15.5396 39.5932 21.3989 45.8807 28.6377 45.8807C35.8765 45.8807 41.7358 39.5932 41.7358 31.8256C41.7358 24.058 35.8765 17.7705 28.6377 17.7705ZM53.5034 6.54476C54.2236 8.20832 54.7974 10.0684 55.2368 12.0856C56.2378 15.452 54.7607 16.1593 51.3428 14.784C48.8281 13.1728 46.3135 11.5485 43.7988 9.93737C42.5171 8.96805 41.9068 8.01184 42.1143 7.06872C42.5293 5.20868 45.874 4.23936 48.6206 3.66301C52.1118 2.91638 51.8677 2.75919 53.5034 6.54476ZM120.874 25.2892C117.517 25.2892 114.783 28.2103 114.783 31.8256C114.783 35.4278 117.505 38.3619 120.874 38.3619C124.231 38.3619 126.965 35.4409 126.965 31.8256C126.965 28.2103 124.243 25.2892 120.874 25.2892ZM28.6377 25.2892C25.2808 25.2892 22.5464 28.2103 22.5464 31.8256C22.5464 35.4278 25.2686 38.3619 28.6377 38.3619C31.9946 38.3619 34.729 35.4409 34.729 31.8256C34.729 28.2103 32.0069 25.2892 28.6377 25.2892ZM93.6768 16.3689C90.2954 12.4785 86.3892 9.95047 81.8726 7.51408C71.9849 2.16974 65.9302 2.82468 55.4321 2.82468L58.96 12.6488C60.437 14.7447 62.1094 16.2248 64.6484 16.3689H93.6768ZM120.874 17.7705C113.635 17.7705 107.776 24.058 107.776 31.8256C107.776 39.5932 113.635 45.8807 120.874 45.8807C128.113 45.8807 133.972 39.5932 133.972 31.8256C133.972 24.058 128.113 17.7705 120.874 17.7705ZM100.171 13.4872C95.874 10.6185 91.1987 8.05113 86.023 5.86362C70.2637 -0.803703 58.2153 -1.9957 41.687 3.37484C36.7066 5.40516 31.7261 7.43549 26.7456 8.69298C21.8262 9.95047 0.524918 11.1556 1.52588e-05 14.9935L5.26125 21.7395C3.34474 23.5209 1.78224 25.7084 1.20851 29.1272C1.3672 31.2361 1.90431 33.0045 2.83205 34.4192C4.40675 36.8424 9.02101 39.3443 11.5112 37.9166C12.3047 37.4581 12.7564 36.5412 12.7442 34.9824C12.6709 3.67611 47.8882 7.239 45.2393 38.6763H106.689C95.3125 7.18661 143.848 7.06872 135.229 37.5891C138.257 41.0996 145.398 35.8076 150 24.5557C148.743 23.2196 147.363 21.949 145.825 20.7701C145.898 20.7046 145.752 21.019 146.008 20.5475C146.265 20.0759 145.386 18.098 143.579 16.9584C134.106 10.9984 111.267 11.1556 100.171 13.4872Z"/>
  </symbol>
  <symbol viewBox="0 0 24 24" id="finish-flag">
    <path opacity="0.5" fill-rule="evenodd" clip-rule="evenodd" d="M6.5 1.75C6.5 1.33579 6.16421 1 5.75 1C5.33579 1 5 1.33579 5 1.75V21.75C5 22.1642 5.33579 22.5 5.75 22.5C6.16421 22.5 6.5 22.1642 6.5 21.75V13.6V3.6V1.75Z"></path>
    <path d="M13.5582 3.87333L13.1449 3.70801C11.5821 3.08288 9.8712 2.9258 8.22067 3.25591L6.5 3.60004V13.6L8.22067 13.2559C9.8712 12.9258 11.5821 13.0829 13.1449 13.708C14.8385 14.3854 16.7024 14.5119 18.472 14.0695L18.5721 14.0445C19.1582 13.898 19.4361 13.2269 19.1253 12.7089L17.5647 10.1078C17.2232 9.53867 17.0524 9.25409 17.0119 8.94455C16.9951 8.81543 16.9951 8.68466 17.0119 8.55553C17.0524 8.24599 17.2232 7.96141 17.5647 7.39225L18.8432 5.26136C19.1778 4.70364 18.6711 4.01976 18.0401 4.17751C16.5513 4.54971 14.9831 4.44328 13.5582 3.87333Z"></path>
  </symbol>
</svg>