<svg width="0" height="0" class="hidden" xmlns="http://www.w3.org/2000/svg">
  <symbol version="1.1" id="car-1" xmlns:xlink="http://www.w3.org/1999/xlink" viewBox="0 0 150 46">
    <path fill-rule="evenodd" clip-rule="evenodd" d="M28.6377 17.7705C21.3989 17.7705 15.5396 24.058 15.5396 31.8256C15.5396 39.5932 21.3989 45.8807 28.6377 45.8807C35.8765 45.8807 41.7358 39.5932 41.7358 31.8256C41.7358 24.058 35.8765 17.7705 28.6377 17.7705ZM53.5034 6.54476C54.2236 8.20832 54.7974 10.0684 55.2368 12.0856C56.2378 15.452 54.7607 16.1593 51.3428 14.784C48.8281 13.1728 46.3135 11.5485 43.7988 9.93737C42.5171 8.96805 41.9068 8.01184 42.1143 7.06872C42.5293 5.20868 45.874 4.23936 48.6206 3.66301C52.1118 2.91638 51.8677 2.75919 53.5034 6.54476ZM120.874 25.2892C117.517 25.2892 114.783 28.2103 114.783 31.8256C114.783 35.4278 117.505 38.3619 120.874 38.3619C124.231 38.3619 126.965 35.4409 126.965 31.8256C126.965 28.2103 124.243 25.2892 120.874 25.2892ZM28.6377 25.2892C25.2808 25.2892 22.5464 28.2103 22.5464 31.8256C22.5464 35.4278 25.2686 38.3619 28.6377 38.3619C31.9946 38.3619 34.729 35.4409 34.729 31.8256C34.729 28.2103 32.0069 25.2892 28.6377 25.2892ZM93.6768 16.3689C90.2954 12.4785 86.3892 9.95047 81.8726 7.51408C71.9849 2.16974 65.9302 2.82468 55.4321 2.82468L58.96 12.6488C60.437 14.7447 62.1094 16.2248 64.6484 16.3689H93.6768ZM120.874 17.7705C113.635 17.7705 107.776 24.058 107.776 31.8256C107.776 39.5932 113.635 45.8807 120.874 45.8807C128.113 45.8807 133.972 39.5932 133.972 31.8256C133.972 24.058 128.113 17.7705 120.874 17.7705ZM100.171 13.4872C95.874 10.6185 91.1987 8.05113 86.023 5.86362C70.2637 -0.803703 58.2153 -1.9957 41.687 3.37484C36.7066 5.40516 31.7261 7.43549 26.7456 8.69298C21.8262 9.95047 0.524918 11.1556 1.52588e-05 14.9935L5.26125 21.7395C3.34474 23.5209 1.78224 25.7084 1.20851 29.1272C1.3672 31.2361 1.90431 33.0045 2.83205 34.4192C4.40675 36.8424 9.02101 39.3443 11.5112 37.9166C12.3047 37.4581 12.7564 36.5412 12.7442 34.9824C12.6709 3.67611 47.8882 7.239 45.2393 38.6763H106.689C95.3125 7.18661 143.848 7.06872 135.229 37.5891C138.257 41.0996 145.398 35.8076 150 24.5557C148.743 23.2196 147.363 21.949 145.825 20.7701C145.898 20.7046 145.752 21.019 146.008 20.5475C146.265 20.0759 145.386 18.098 143.579 16.9584C134.106 10.9984 111.267 11.1556 100.171 13.4872Z"/>
  </symbol>
  <symbol id="car-2" xmlns:xlink="http://www.w3.org/1999/xlink" viewBox="0 0 512.000000 512.000000">
    <g><path d="M 296.5,162.5 C 291.305,162.179 286.305,162.513 281.5,163.5C 279.278,163.559 278.278,164.725 278.5,167C 278.625,168.627 279.125,170.127 280,171.5C 290,183.5 300,195.5 310,207.5C 312.975,211.048 316.475,213.714 320.5,215.5C 311.167,215.5 301.833,215.5 292.5,215.5C 294.941,213.037 295.107,210.371 293,207.5C 281.167,193.667 269.333,179.833 257.5,166C 255.512,165.062 253.512,164.228 251.5,163.5C 236.67,162.833 221.67,162.5 206.5,162.5C 190.436,162.355 174.436,162.855 158.5,164C 146.333,174.833 134.833,186.333 124,198.5C 122.305,205.759 124.472,211.425 130.5,215.5C 110.12,214.212 90.1199,211.212 70.5,206.5C 85.6398,192.865 100.973,179.365 116.5,166C 123.385,160.81 131.052,157.143 139.5,155C 185.468,153.364 231.468,153.031 277.5,154C 284.688,155.217 291.022,158.05 296.5,162.5 Z"/></g>
    <g><path d="M 281.5,163.5 C 286.305,162.513 291.305,162.179 296.5,162.5C 298.027,162.427 299.027,163.094 299.5,164.5C 293.559,163.587 287.559,163.254 281.5,163.5 Z"/></g>
    <g><path fill="transparent" d="M 251.5,163.5 C 232.167,163.5 212.833,163.5 193.5,163.5C 187.463,163.171 181.463,163.504 175.5,164.5C 169.628,181.45 163.961,198.45 158.5,215.5C 149.167,215.5 139.833,215.5 130.5,215.5C 124.472,211.425 122.305,205.759 124,198.5C 134.833,186.333 146.333,174.833 158.5,164C 174.436,162.855 190.436,162.355 206.5,162.5C 221.67,162.5 236.67,162.833 251.5,163.5 Z"/></g>
    <g><path d="M 193.5,163.5 C 190.184,180.732 187.517,198.065 185.5,215.5C 176.5,215.5 167.5,215.5 158.5,215.5C 163.961,198.45 169.628,181.45 175.5,164.5C 181.463,163.504 187.463,163.171 193.5,163.5 Z"/></g>
    <g><path fill="transparent" d="M 193.5,163.5 C 212.833,163.5 232.167,163.5 251.5,163.5C 253.512,164.228 255.512,165.062 257.5,166C 269.333,179.833 281.167,193.667 293,207.5C 295.107,210.371 294.941,213.037 292.5,215.5C 256.833,215.5 221.167,215.5 185.5,215.5C 187.517,198.065 190.184,180.732 193.5,163.5 Z"/></g>
    <g><path fill="transparent" d="M 281.5,163.5 C 287.559,163.254 293.559,163.587 299.5,164.5C 302.13,166.628 304.63,168.961 307,171.5C 318.378,184.706 329.544,198.04 340.5,211.5C 340.511,213.017 341.177,214.184 342.5,215C 336.509,215.499 330.509,215.666 324.5,215.5C 323.167,215.5 321.833,215.5 320.5,215.5C 316.475,213.714 312.975,211.048 310,207.5C 300,195.5 290,183.5 280,171.5C 279.125,170.127 278.625,168.627 278.5,167C 278.278,164.725 279.278,163.559 281.5,163.5 Z"/></g>
    <g><path d="M 70.5,206.5 C 90.1199,211.212 110.12,214.212 130.5,215.5C 139.833,215.5 149.167,215.5 158.5,215.5C 167.5,215.5 176.5,215.5 185.5,215.5C 221.167,215.5 256.833,215.5 292.5,215.5C 301.833,215.5 311.167,215.5 320.5,215.5C 321.833,215.5 323.167,215.5 324.5,215.5C 330.833,216.833 337.167,216.833 343.5,215.5C 375.379,215.295 407.046,217.795 438.5,223C 456.618,225.862 473.951,231.195 490.5,239C 491.71,240.039 492.71,241.206 493.5,242.5C 489.486,242.334 485.486,242.501 481.5,243C 479.65,243.69 478.316,244.856 477.5,246.5C 473.154,244.405 468.487,242.905 463.5,242C 441.37,237.776 419.036,235.109 396.5,234C 271.167,233.5 145.834,233.333 20.5,233.5C 14.7414,233.214 9.07475,233.548 3.5,234.5C 3.83374,225.653 7.83374,219.153 15.5,215C 33.7195,211.469 52.0528,208.635 70.5,206.5 Z"/></g>
    <g><path d="M 340.5,211.5 C 342.262,212.262 343.262,213.596 343.5,215.5C 337.167,216.833 330.833,216.833 324.5,215.5C 330.509,215.666 336.509,215.499 342.5,215C 341.177,214.184 340.511,213.017 340.5,211.5 Z"/></g>
    <g><path fill="#ffffff" d="M 20.5,233.5 C 25.1206,236.589 26.6206,240.923 25,246.5C 23.8333,247.667 22.6667,248.833 21.5,250C 14.2542,251.391 6.92087,251.891 -0.5,251.5C -0.5,246.833 -0.5,242.167 -0.5,237.5C 0.833333,236.5 2.16667,235.5 3.5,234.5C 9.07475,233.548 14.7414,233.214 20.5,233.5 Z"/></g>
    <g><path d="M 20.5,233.5 C 145.834,233.333 271.167,233.5 396.5,234C 419.036,235.109 441.37,237.776 463.5,242C 468.487,242.905 473.154,244.405 477.5,246.5C 474.938,253.039 476.938,257.372 483.5,259.5C 488.985,260.327 494.652,260.827 500.5,261C 502.113,263.228 502.78,265.728 502.5,268.5C 496.067,267.478 490.567,269.145 486,273.5C 484.811,277.709 485.644,281.376 488.5,284.5C 493.333,286.243 498.333,286.91 503.5,286.5C 503.5,292.167 503.5,297.833 503.5,303.5C 494.682,304.493 485.682,304.827 476.5,304.5C 474.796,280.3 462.796,263.467 440.5,254C 410.149,246.66 387.982,256.827 374,284.5C 371.025,291.179 369.859,298.179 370.5,305.5C 293.833,304.167 217.167,304.167 140.5,305.5C 140.412,286.49 132.745,271.323 117.5,260C 90.5817,245.313 66.7483,249.146 46,271.5C 41.3941,278.045 37.8941,285.045 35.5,292.5C 26.7017,290.193 17.7017,288.193 8.5,286.5C 4.40167,286.944 1.40167,288.944 -0.5,292.5C -0.5,278.833 -0.5,265.167 -0.5,251.5C 6.92087,251.891 14.2542,251.391 21.5,250C 22.6667,248.833 23.8333,247.667 25,246.5C 26.6206,240.923 25.1206,236.589 20.5,233.5 Z"/></g>
    <g><path fill="#ffffff" d="M 493.5,242.5 C 497.639,245.426 500.306,249.426 501.5,254.5C 501.5,256.167 501.5,257.833 501.5,259.5C 495.5,259.5 489.5,259.5 483.5,259.5C 476.938,257.372 474.938,253.039 477.5,246.5C 478.316,244.856 479.65,243.69 481.5,243C 485.486,242.501 489.486,242.334 493.5,242.5 Z"/></g>
    <g><path fill="#514b5a" d="M 140.5,305.5 C 140.038,311.273 139.038,316.939 137.5,322.5C 127.05,347.728 108.05,359.228 80.5,357C 54.6161,351.949 39.2828,336.449 34.5,310.5C 34.4255,304.471 34.7588,298.471 35.5,292.5C 37.8941,285.045 41.3941,278.045 46,271.5C 66.7483,249.146 90.5817,245.313 117.5,260C 132.745,271.323 140.412,286.49 140.5,305.5 Z"/></g>
    <g><path fill="#514c5a" d="M 476.5,304.5 C 476.014,310.596 475.014,316.596 473.5,322.5C 463.955,344.526 447.122,356.193 423,357.5C 398.81,356.447 382.31,344.78 373.5,322.5C 373.672,321.508 373.338,320.842 372.5,320.5C 371.725,315.516 371.058,310.516 370.5,305.5C 369.859,298.179 371.025,291.179 374,284.5C 387.982,256.827 410.149,246.66 440.5,254C 462.796,263.467 474.796,280.3 476.5,304.5 Z"/></g>
    <g><path d="M 501.5,254.5 C 502.801,258.943 503.468,263.609 503.5,268.5C 503.167,268.5 502.833,268.5 502.5,268.5C 502.78,265.728 502.113,263.228 500.5,261C 494.652,260.827 488.985,260.327 483.5,259.5C 489.5,259.5 495.5,259.5 501.5,259.5C 501.5,257.833 501.5,256.167 501.5,254.5 Z"/></g>
    <g><path d="M 166.5,268.5 C 228.834,268.333 291.168,268.5 353.5,269C 360.905,270.977 363.072,275.477 360,282.5C 358.786,284.049 357.286,285.215 355.5,286C 291.833,286.667 228.167,286.667 164.5,286C 159.008,282.858 157.508,278.358 160,272.5C 161.792,270.372 163.958,269.039 166.5,268.5 Z"/></g>
    <g><path d="M 502.5,268.5 C 502.833,268.5 503.167,268.5 503.5,268.5C 507.179,268.667 509.846,270.334 511.5,273.5C 511.5,276.167 511.5,278.833 511.5,281.5C 509.846,284.666 507.179,286.333 503.5,286.5C 498.333,286.91 493.333,286.243 488.5,284.5C 485.644,281.376 484.811,277.709 486,273.5C 490.567,269.145 496.067,267.478 502.5,268.5 Z"/></g>
    <g><path style="opacity:1" fill="#eaeaec" d="M 81.5,268.5 C 101.897,267.429 115.397,276.429 122,295.5C 125.006,319.34 114.84,333.84 91.5,339C 71.7439,339.583 58.9106,330.417 53,311.5C 51.0054,289.477 60.5054,275.144 81.5,268.5 Z"/></g>
    <g><path style="opacity:1" fill="#ebebec" d="M 418.5,268.5 C 435.725,268.021 448.225,275.355 456,290.5C 461.765,310.214 455.932,325.38 438.5,336C 416.152,343.571 399.985,336.738 390,315.5C 384.904,290.799 394.404,275.133 418.5,268.5 Z"/></g>
    <g><path d="M 35.5,292.5 C 34.7588,298.471 34.4255,304.471 34.5,310.5C 24.812,308.495 15.1453,306.328 5.5,304C 2.85408,303.196 0.854084,301.696 -0.5,299.5C -0.5,297.167 -0.5,294.833 -0.5,292.5C 1.40167,288.944 4.40167,286.944 8.5,286.5C 17.7017,288.193 26.7017,290.193 35.5,292.5 Z"/></g>
    <g><path style="opacity:1" fill="#dcdbde" d="M 82.5,286.5 C 98.168,285.669 105.668,293.002 105,308.5C 98.3422,322.274 88.5088,325.108 75.5,317C 66.9858,304.168 69.3192,294.001 82.5,286.5 Z"/></g>
    <g><path style="opacity:1" fill="#dcdbde" d="M 418.5,286.5 C 434.347,285.513 441.514,292.846 440,308.5C 434.82,320.789 425.987,324.289 413.5,319C 403.265,309.59 402.932,299.923 412.5,290C 414.432,288.541 416.432,287.375 418.5,286.5 Z"/></g>
    <g><path d="M 503.5,303.5 C 506.849,304.169 509.516,305.836 511.5,308.5C 511.5,311.5 511.5,314.5 511.5,317.5C 509.567,319.596 507.233,321.096 504.5,322C 494.172,322.5 483.839,322.666 473.5,322.5C 475.014,316.596 476.014,310.596 476.5,304.5C 485.682,304.827 494.682,304.493 503.5,303.5 Z"/></g>
    <g><path d="M 370.5,305.5 C 371.058,310.516 371.725,315.516 372.5,320.5C 303.833,321.167 235.167,321.833 166.5,322.5C 156.833,322.5 147.167,322.5 137.5,322.5C 139.038,316.939 140.038,311.273 140.5,305.5C 217.167,304.167 293.833,304.167 370.5,305.5 Z"/></g>
    <g><path d="M 372.5,320.5 C 373.338,320.842 373.672,321.508 373.5,322.5C 304.5,322.5 235.5,322.5 166.5,322.5C 235.167,321.833 303.833,321.167 372.5,320.5 Z"/></g>
  </symbol>
  <symbol id="car-3" xmlns:xlink="http://www.w3.org/1999/xlink" viewBox="0 0 512.000000 512.000000">
    <g><path d="M 296.5,156.5 C 295.048,157.302 293.382,157.802 291.5,158C 290.941,158.725 290.608,159.558 290.5,160.5C 291.361,163.527 292.861,166.194 295,168.5C 304.167,179.667 313.333,190.833 322.5,202C 327.203,205.352 332.203,208.185 337.5,210.5C 391.441,213.909 444.774,221.576 497.5,233.5C 502.096,242.642 503.596,252.309 502,262.5C 499.878,276.655 496.045,290.322 490.5,303.5C 483.753,304.075 477.086,304.909 470.5,306C 468.773,308.904 468.107,312.07 468.5,315.5C 467.391,315.443 466.391,315.11 465.5,314.5C 464.878,313.373 464.045,312.373 463,311.5C 459.276,301.719 455.276,292.052 451,282.5C 448.044,277.769 443.877,274.602 438.5,273C 419.833,272.333 401.167,272.333 382.5,273C 374.87,274.627 369.704,279.127 367,286.5C 363.853,295.76 361.019,305.094 358.5,314.5C 357.457,325.097 352.124,332.597 342.5,337C 284.151,337.087 225.818,336.087 167.5,334C 160.906,332.059 155.906,328.226 152.5,322.5C 152.773,301.301 143.44,286.134 124.5,277C 120.002,275.144 115.335,273.977 110.5,273.5C 109.213,271.363 108.379,269.03 108,266.5C 107.333,242.5 107.333,218.5 108,194.5C 111.665,185.169 117.832,178.002 126.5,173C 143.917,163.426 162.583,158.093 182.5,157C 190.826,156.31 199.159,155.81 207.5,155.5C 209.284,208.526 211.617,261.526 214.5,314.5C 201.829,314.667 189.162,314.5 176.5,314C 173.672,306.183 170.838,298.35 168,290.5C 166.71,288.208 165.043,286.208 163,284.5C 167.758,294.554 171.925,305.054 175.5,316C 221.833,316.667 268.167,316.667 314.5,316C 315.416,315.722 316.082,315.222 316.5,314.5C 282.833,314.5 249.167,314.5 215.5,314.5C 213.728,261.583 211.395,208.75 208.5,156C 229.501,156.198 250.501,156.864 271.5,158C 274.265,158.743 276.931,159.41 279.5,160C 276.508,157.89 273.175,156.557 269.5,156C 249,155.154 228.5,154.321 208,153.5C 181.785,153.118 156.618,157.951 132.5,168C 120.641,173.192 112.141,181.692 107,193.5C 106.333,219.167 106.333,244.833 107,270.5C 107.5,271 108,271.5 108.5,272C 106.618,272.198 104.952,272.698 103.5,273.5C 79.2498,276.746 64.5831,290.413 59.5,314.5C 56.9563,319.537 52.9563,323.037 47.5,325C 39.2363,326.37 30.903,326.87 22.5,326.5C 22.5,321.833 22.5,317.167 22.5,312.5C 16.8333,312.5 11.1667,312.5 5.5,312.5C 5.5,309.5 5.5,306.5 5.5,303.5C 5.78024,290.136 6.61357,276.803 8,263.5C 11.5724,247.589 20.7391,236.089 35.5,229C 46.657,223.726 58.3237,220.059 70.5,218C 77.3532,196.485 89.6865,178.818 107.5,165C 123.642,157.176 140.642,152.176 158.5,150C 196.402,144.71 234.402,143.71 272.5,147C 281.373,148.121 289.373,151.288 296.5,156.5 Z"/></g>
    <g><path fill="#ffffff" d="M 296.5,156.5 C 312.463,172.791 326.129,190.791 337.5,210.5C 332.203,208.185 327.203,205.352 322.5,202C 313.333,190.833 304.167,179.667 295,168.5C 292.861,166.194 291.361,163.527 290.5,160.5C 290.608,159.558 290.941,158.725 291.5,158C 293.382,157.802 295.048,157.302 296.5,156.5 Z"/></g>
    <g><path fill="#ffffff" d="M 219.5,166.5 C 237.503,166.333 255.503,166.5 273.5,167C 282.286,178.736 290.453,190.902 298,203.5C 299.271,207.166 298.104,209.666 294.5,211C 270.167,211.667 245.833,211.667 221.5,211C 220.667,210.167 219.833,209.333 219,208.5C 218.064,195.173 217.73,181.839 218,168.5C 218.717,167.956 219.217,167.289 219.5,166.5 Z"/></g>
    <g><path fill="transparent" d="M 316.5,314.5 C 319.2,312.954 321.033,310.621 322,307.5C 322.667,277.833 322.667,248.167 322,218.5C 314.667,208.5 307.333,198.5 300,188.5C 298.711,186.945 298.044,185.279 298,183.5C 306.719,194.552 315.053,205.886 323,217.5C 323.667,248.167 323.667,278.833 323,309.5C 321.809,312.534 319.642,314.201 316.5,314.5 Z"/></g>
    <g><path fill="transparent" d="M 316.5,314.5 C 316.082,315.222 315.416,315.722 314.5,316C 268.167,316.667 221.833,316.667 175.5,316C 171.925,305.054 167.758,294.554 163,284.5C 165.043,286.208 166.71,288.208 168,290.5C 170.838,298.35 173.672,306.183 176.5,314C 189.162,314.5 201.829,314.667 214.5,314.5C 211.617,261.526 209.284,208.526 207.5,155.5C 199.159,155.81 190.826,156.31 182.5,157C 162.583,158.093 143.917,163.426 126.5,173C 117.832,178.002 111.665,185.169 108,194.5C 107.333,218.5 107.333,242.5 108,266.5C 108.379,269.03 109.213,271.363 110.5,273.5C 108.167,273.5 105.833,273.5 103.5,273.5C 104.952,272.698 106.618,272.198 108.5,272C 108,271.5 107.5,271 107,270.5C 106.333,244.833 106.333,219.167 107,193.5C 112.141,181.692 120.641,173.192 132.5,168C 156.618,157.951 181.785,153.118 208,153.5C 228.5,154.321 249,155.154 269.5,156C 273.175,156.557 276.508,157.89 279.5,160C 276.931,159.41 274.265,158.743 271.5,158C 250.501,156.864 229.501,156.198 208.5,156C 211.395,208.75 213.728,261.583 215.5,314.5C 249.167,314.5 282.833,314.5 316.5,314.5 Z"/></g>
    <g><path fill="#ffffff" d="M 168.5,166.5 C 175.841,166.334 183.174,166.5 190.5,167C 191.931,167.465 193.097,168.299 194,169.5C 195.121,182.82 195.454,196.154 195,209.5C 194.5,210 194,210.5 193.5,211C 168.849,212.511 144.182,213.177 119.5,213C 115.561,209.415 114.727,205.249 117,200.5C 123.781,185.721 134.948,175.887 150.5,171C 156.565,169.292 162.565,167.792 168.5,166.5 Z"/></g>
    <g><path d="M 497.5,233.5 C 502.799,233.598 507.465,235.265 511.5,238.5C 511.5,243.5 511.5,248.5 511.5,253.5C 508.909,271.194 504.409,288.528 498,305.5C 497.667,309.5 497.333,313.5 497,317.5C 496.5,318 496,318.5 495.5,319C 487.167,319.667 478.833,319.667 470.5,319C 469.695,317.887 469.028,316.721 468.5,315.5C 468.107,312.07 468.773,308.904 470.5,306C 477.086,304.909 483.753,304.075 490.5,303.5C 496.045,290.322 499.878,276.655 502,262.5C 503.596,252.309 502.096,242.642 497.5,233.5 Z"/></g>
    <g><path fill="#000000" d="M 465.5,314.5 C 461.833,314.5 458.167,314.5 454.5,314.5C 449.626,289.47 434.459,275.804 409,273.5C 382.784,275.22 366.951,288.886 361.5,314.5C 360.5,314.5 359.5,314.5 358.5,314.5C 361.019,305.094 363.853,295.76 367,286.5C 369.704,279.127 374.87,274.627 382.5,273C 401.167,272.333 419.833,272.333 438.5,273C 443.877,274.602 448.044,277.769 451,282.5C 455.276,292.052 459.276,301.719 463,311.5C 464.045,312.373 464.878,313.373 465.5,314.5 Z"/></g>
    <g><path fill="#000000" d="M 103.5,273.5 C 105.833,273.5 108.167,273.5 110.5,273.5C 115.335,273.977 120.002,275.144 124.5,277C 143.44,286.134 152.773,301.301 152.5,322.5C 151.073,341.839 141.406,355.339 123.5,363C 94.6753,371.168 74.1753,361.668 62,334.5C 60.058,327.972 59.2247,321.305 59.5,314.5C 64.5831,290.413 79.2498,276.746 103.5,273.5 Z"/></g>
    <g><path fill="#000000" d="M 454.5,314.5 C 455.47,337.066 445.803,353.232 425.5,363C 404.756,369.856 386.923,365.356 372,349.5C 364.168,339.168 360.668,327.502 361.5,314.5C 366.951,288.886 382.784,275.22 409,273.5C 434.459,275.804 449.626,289.47 454.5,314.5 Z"/></g>
    <g><path fill="#e8eef1" d="M 98.5,292.5 C 115.454,290.052 126.954,296.719 133,312.5C 134.322,336.845 122.822,348.011 98.5,346C 80.9291,337.968 75.4291,324.802 82,306.5C 86.1976,300.123 91.6976,295.456 98.5,292.5 Z"/></g>
    <g><path fill="#e8edf1" d="M 400.5,292.5 C 423.366,290.544 434.866,300.877 435,323.5C 430.418,341.391 418.918,348.891 400.5,346C 385.708,340.264 379.208,329.43 381,313.5C 383.95,303.055 390.45,296.055 400.5,292.5 Z"/></g>
    <g><path fill="000000" d="M 5.5,303.5 C 5.5,306.5 5.5,309.5 5.5,312.5C 11.1667,312.5 16.8333,312.5 22.5,312.5C 22.5,317.167 22.5,321.833 22.5,326.5C 16.013,327.654 9.34636,327.821 2.5,327C 1.62656,325.955 0.626561,325.122 -0.5,324.5C -0.5,318.5 -0.5,312.5 -0.5,306.5C 1.05322,304.615 3.05322,303.615 5.5,303.5 Z"/></g>
    <g><path fill="000000" d="M 102.5,310.5 C 114.873,310.686 118.206,316.186 112.5,327C 101.431,330.891 96.5977,327.058 98,315.5C 99.025,313.313 100.525,311.646 102.5,310.5 Z"/></g>
    <g><path fill="000000" d="M 404.5,310.5 C 413.495,309.663 417.661,313.663 417,322.5C 414.185,328.169 409.685,330.002 403.5,328C 396.642,321.676 396.976,315.843 404.5,310.5 Z"/></g>
  </symbol>
  <symbol id="car-4" xmlns:xlink="http://www.w3.org/1999/xlink" viewBox="0 0 512.000000 512.000000">
    <g><path fill="transparent" d="M 127.5,135.5 C 127.34,139.658 125.34,142.492 121.5,144C 111.774,144.108 102.107,144.775 92.5,146C 84.6807,149.464 79.5141,155.297 77,163.5C 76.5,182.83 76.3334,202.164 76.5,221.5C 87.8333,221.5 99.1667,221.5 110.5,221.5C 110.333,207.829 110.5,194.163 111,180.5C 114.079,172.42 119.579,166.586 127.5,163C 173.107,161.515 218.773,161.015 264.5,161.5C 264.665,157.818 264.499,154.152 264,150.5C 262.74,147.572 260.573,145.739 257.5,145C 221.5,144.667 185.5,144.333 149.5,144C 146.288,141.981 144.622,139.147 144.5,135.5C 144.269,132.215 145.603,129.715 148.5,128C 187.56,127.018 226.56,127.351 265.5,129C 273.938,132.437 279.105,138.604 281,147.5C 281.667,153.833 281.667,160.167 281,166.5C 280.036,170.468 277.869,173.635 274.5,176C 277.167,185 279.833,194 282.5,203C 333.204,203.023 383.871,203.689 434.5,205C 444.769,208.598 450.602,215.765 452,226.5C 452.5,233.158 452.666,239.825 452.5,246.5C 467.438,245.61 481.771,248.11 495.5,254C 503.508,257.503 508.841,263.336 511.5,271.5C 511.5,276.167 511.5,280.833 511.5,285.5C 509.663,291.652 505.997,296.486 500.5,300C 505.793,306.408 509.459,313.575 511.5,321.5C 511.5,328.833 511.5,336.167 511.5,343.5C 499.195,378.154 475.195,390.321 439.5,380C 423.327,371.992 413.327,359.159 409.5,341.5C 326.833,341.333 244.166,341.5 161.5,342C 152.475,372.354 132.142,386.021 100.5,383C 74.4911,375.983 60.4911,358.983 58.5,332C 58.725,329.472 59.0584,326.972 59.5,324.5C 54.5729,324.101 49.9063,322.768 45.5,320.5C 34.0484,330.939 21.715,332.106 8.5,324C 4.42933,320.118 1.42933,315.618 -0.5,310.5C -0.5,304.167 -0.5,297.833 -0.5,291.5C 1.91713,272.01 4.0838,252.344 6,232.5C 12.6571,214.598 25.1571,208.765 43.5,215C 47.4713,217.142 50.8046,219.976 53.5,223.5C 54.8333,222.833 56.1667,222.167 57.5,221.5C 58.333,202.842 58.833,184.176 59,165.5C 62.001,145.642 73.1677,133.142 92.5,128C 102.833,127.333 113.167,127.333 123.5,128C 126.397,129.715 127.731,132.215 127.5,135.5 Z"/></g>
    <g><path d="M 127.5,135.5 C 133.167,135.5 138.833,135.5 144.5,135.5C 144.622,139.147 146.288,141.981 149.5,144C 185.5,144.333 221.5,144.667 257.5,145C 260.573,145.739 262.74,147.572 264,150.5C 264.499,154.152 264.665,157.818 264.5,161.5C 218.773,161.015 173.107,161.515 127.5,163C 119.579,166.586 114.079,172.42 111,180.5C 110.5,194.163 110.333,207.829 110.5,221.5C 99.1667,221.5 87.8333,221.5 76.5,221.5C 76.3334,202.164 76.5,182.83 77,163.5C 79.5141,155.297 84.6807,149.464 92.5,146C 102.107,144.775 111.774,144.108 121.5,144C 125.34,142.492 127.34,139.658 127.5,135.5 Z"/></g>
    <g><path fill="transparent" d="M 133.5,179.5 C 151.167,179.5 168.833,179.5 186.5,179.5C 186.5,193.167 186.5,206.833 186.5,220.5C 166.833,220.5 147.167,220.5 127.5,220.5C 127.333,208.162 127.5,195.829 128,183.5C 129.451,181.536 131.284,180.203 133.5,179.5 Z"/></g>
    <g><path fill="transparent" d="M 267.5,217.5 C 267.5,218.5 267.5,219.5 267.5,220.5C 246.5,220.5 225.5,220.5 204.5,220.5C 204.5,206.5 204.5,192.5 204.5,178.5C 222.17,178.333 239.836,178.5 257.5,179C 261.26,191.698 264.593,204.531 267.5,217.5 Z"/></g>
    <g><path fill="transparent" d="M 133.5,179.5 C 151.326,178.503 169.326,178.17 187.5,178.5C 187.5,192.833 187.5,207.167 187.5,221.5C 167.326,221.83 147.326,221.497 127.5,220.5C 147.167,220.5 166.833,220.5 186.5,220.5C 186.5,206.833 186.5,193.167 186.5,179.5C 168.833,179.5 151.167,179.5 133.5,179.5 Z"/></g>
    <g><path fill="transparent" d="M 267.5,217.5 C 268.434,218.568 268.768,219.901 268.5,221.5C 246.993,221.831 225.66,221.497 204.5,220.5C 225.5,220.5 246.5,220.5 267.5,220.5C 267.5,219.5 267.5,218.5 267.5,217.5 Z"/></g>
    <g><path d="M 286.5,221.5 C 334.168,221.333 381.834,221.5 429.5,222C 431.667,222.833 433.167,224.333 434,226.5C 434.5,234.827 434.666,243.16 434.5,251.5C 421.227,255.61 409.56,262.444 399.5,272C 394.591,279.58 387.924,284.914 379.5,288C 366.386,289.129 353.22,289.629 340,289.5C 328.167,289.167 316.333,288.833 304.5,288.5C 298.342,266.202 292.342,243.868 286.5,221.5 Z"/></g>
    <g><path d="M 27.5,230.5 C 34.1035,228.964 38.4368,231.297 40.5,237.5C 36.8143,260.356 34.3143,283.356 33,306.5C 31.4707,309.934 28.804,311.6 25,311.5C 19.2609,311.261 16.4275,308.261 16.5,302.5C 18.865,280.516 21.0317,258.516 23,236.5C 23.8041,233.854 25.3041,231.854 27.5,230.5 Z"/></g>
    <g><path d="M 60.5,238.5 C 131.503,238.167 202.503,238.5 273.5,239.5C 279.969,262.743 286.136,286.077 292,309.5C 293.237,314.473 295.404,318.973 298.5,323C 252.501,323.5 206.501,323.667 160.5,323.5C 155.868,301.366 142.534,287.533 120.5,282C 97.3186,278.595 79.3186,286.595 66.5,306C 56.697,309.003 51.3636,305.503 50.5,295.5C 52.5969,278.532 54.4302,261.532 56,244.5C 57.332,242.34 58.832,240.34 60.5,238.5 Z"/></g>
    <g><path d="M 447.5,264.5 C 460.527,263.357 473.194,264.857 485.5,269C 493.481,271.131 495.981,275.964 493,283.5C 491.257,285.871 488.923,287.205 486,287.5C 452.912,273.749 428.245,282.749 412,314.5C 411.304,317.478 410.804,320.478 410.5,323.5C 382.498,323.667 354.498,323.5 326.5,323C 317.649,320.648 311.983,315.148 309.5,306.5C 332.169,306.667 354.836,306.5 377.5,306C 386.025,304.569 393.692,301.236 400.5,296C 407.9,287.93 415.9,280.596 424.5,274C 431.824,269.661 439.49,266.494 447.5,264.5 Z"/></g>
    <g><path fill="#565d6c" d="M 101.5,298.5 C 130.635,296.804 144.802,310.47 144,339.5C 137.479,359.01 123.979,367.843 103.5,366C 83.2136,359.613 74.3802,345.78 77,324.5C 80.9248,311.744 89.0915,303.078 101.5,298.5 Z"/></g>
    <g><path fill="#565d6c" d="M 451.5,298.5 C 473.136,296.054 487.303,305.054 494,325.5C 495.945,347.123 486.445,360.623 465.5,366C 437.377,365.871 424.543,351.704 427,323.5C 431.352,311.316 439.518,302.983 451.5,298.5 Z"/></g>
  </symbol>
  <symbol id="car-5" xmlns:xlink="http://www.w3.org/1999/xlink" viewBox="0 0 512.000000 512.000000">
    <g><path fill="#ffffff" d="M 281.5,164.5 C 282.946,163.387 284.613,163.22 286.5,164C 288.96,165.458 291.127,167.291 293,169.5C 303.475,182.943 314.308,196.109 325.5,209C 320.595,213.989 315.095,215.156 309,212.5C 301.07,195.622 291.904,179.622 281.5,164.5 Z"/></g>
    <g><path fill="#ffffff" d="M 300.5,220.5 C 291.45,225.381 282.783,230.881 274.5,237C 246.926,251.312 219.592,250.979 192.5,236C 183.727,229.635 178.06,221.135 175.5,210.5C 179.985,208.663 183.985,209.33 187.5,212.5C 191.147,223.98 198.481,232.147 209.5,237C 231.372,242.924 252.372,240.591 272.5,230C 280.106,224.571 288.106,219.737 296.5,215.5C 297.857,217.186 299.19,218.852 300.5,220.5 Z"/></g>
    <g><path d="M 175.5,210.5 C 178.06,221.135 183.727,229.635 192.5,236C 219.592,250.979 246.926,251.312 274.5,237C 282.783,230.881 291.45,225.381 300.5,220.5C 302.736,222.893 305.403,224.727 308.5,226C 319.386,227.038 328.719,223.705 336.5,216C 341.833,215.333 347.167,215.333 352.5,216C 341.184,220.156 330.184,225.156 319.5,231C 303.623,241.6 286.29,248.934 267.5,253C 265.771,254.789 265.104,256.956 265.5,259.5C 258.196,260.302 250.862,260.635 243.5,260.5C 243.548,257.708 242.215,255.875 239.5,255C 215.622,253.263 193.622,245.93 173.5,233C 157.296,225.693 140.296,222.359 122.5,223C 139.764,217.101 157.43,212.934 175.5,210.5 Z"/></g>
    <g><path d="M 477.5,214.5 C 479.857,214.337 482.19,214.503 484.5,215C 485.667,215.5 486.5,216.333 487,217.5C 487.667,226.5 487.667,235.5 487,244.5C 481.262,234.095 473.429,225.595 463.5,219C 468.184,217.17 472.851,215.67 477.5,214.5 Z"/></g>
    <g><path d="M 476.5,294.5 C 472.281,294.472 468.781,292.805 466,289.5C 454.148,261.484 432.981,248.651 402.5,251C 384.002,254.185 369.835,263.685 360,279.5C 356.806,286.083 353.806,292.75 351,299.5C 347.551,305.611 342.385,309.444 335.5,311C 326.173,311.5 316.839,311.666 307.5,311.5C 307.333,293.83 307.5,276.164 308,258.5C 311.5,251 317,245.5 324.5,242C 352.963,225.551 383.629,217.551 416.5,218C 441.019,218.365 460.519,228.199 475,247.5C 484.406,263.024 484.906,278.691 476.5,294.5 Z"/></g>
    <g><path d="M 243.5,260.5 C 250.862,260.635 258.196,260.302 265.5,259.5C 266.449,262.94 268.782,264.274 272.5,263.5C 280.261,261.914 287.928,259.914 295.5,257.5C 295.5,275.5 295.5,293.5 295.5,311.5C 267.831,311.667 240.165,311.5 212.5,311C 209.438,309.939 206.938,308.106 205,305.5C 201.052,296.328 196.719,287.328 192,278.5C 175.297,255.928 153.13,247.761 125.5,254C 112.747,257.963 102.58,265.463 95,276.5C 90.5203,284.461 86.8536,292.794 84,301.5C 82.5,303 81,304.5 79.5,306C 73.8431,306.499 68.1764,306.666 62.5,306.5C 55.65,305.999 50.8166,302.665 48,296.5C 46.42,287.576 46.0867,278.576 47,269.5C 48.7379,265.759 51.2379,262.592 54.5,260C 98.4922,229.25 143.492,227.584 189.5,255C 203.704,261.291 218.537,265.124 234,266.5C 239.141,267.358 242.307,265.358 243.5,260.5 Z"/></g>
    <g><path d="M 476.5,294.5 C 474.842,297.794 472.676,300.794 470,303.5C 469.288,306.438 469.788,309.104 471.5,311.5C 468.003,314.083 464.336,316.416 460.5,318.5C 460.666,311.492 460.5,304.492 460,297.5C 448.403,266.116 426.236,254.282 393.5,262C 370.467,271.893 359.467,289.393 360.5,314.5C 360.5,315.833 360.5,317.167 360.5,318.5C 342.833,318.5 325.167,318.5 307.5,318.5C 307.5,316.167 307.5,313.833 307.5,311.5C 316.839,311.666 326.173,311.5 335.5,311C 342.385,309.444 347.551,305.611 351,299.5C 353.806,292.75 356.806,286.083 360,279.5C 369.835,263.685 384.002,254.185 402.5,251C 432.981,248.651 454.148,261.484 466,289.5C 468.781,292.805 472.281,294.472 476.5,294.5 Z"/></g>
    <g><path d="M 295.5,311.5 C 295.5,314.167 295.5,316.833 295.5,319.5C 266.165,319.333 236.831,319.5 207.5,320C 205.393,321.264 204.393,323.097 204.5,325.5C 199.833,325.5 195.167,325.5 190.5,325.5C 193.137,318.065 193.97,310.398 193,302.5C 184.28,269.718 163.113,255.885 129.5,261C 104.916,269.766 92.583,287.266 92.5,313.5C 82.112,312.401 72.112,310.068 62.5,306.5C 68.1764,306.666 73.8431,306.499 79.5,306C 81,304.5 82.5,303 84,301.5C 86.8536,292.794 90.5203,284.461 95,276.5C 102.58,265.463 112.747,257.963 125.5,254C 153.13,247.761 175.297,255.928 192,278.5C 196.719,287.328 201.052,296.328 205,305.5C 206.938,308.106 209.438,309.939 212.5,311C 240.165,311.5 267.831,311.667 295.5,311.5 Z"/></g>
    <g><path d="M 25.5,253.5 C 29.8526,254.319 33.3526,256.652 36,260.5C 34.8385,269.408 34.3385,278.408 34.5,287.5C 31.4816,287.665 28.4816,287.498 25.5,287C 25,286.5 24.5,286 24,285.5C 23.3333,275.5 23.3333,265.5 24,255.5C 24.7172,254.956 25.2172,254.289 25.5,253.5 Z"/></g>
    <g><path fill="#ffffff" d="M 134.5,271.5 C 158.903,269.438 174.403,280.104 181,303.5C 182.153,326.003 171.986,340.503 150.5,347C 127.82,349.64 112.987,340.14 106,318.5C 102.722,295.053 112.222,279.386 134.5,271.5 Z"/></g>
    <g><path fill="#ffffff" d="M 402.5,271.5 C 434.377,270.543 449.544,285.876 448,317.5C 441.056,339.736 425.889,349.57 402.5,347C 380.591,339.743 370.757,324.576 373,301.5C 377.692,286.309 387.526,276.309 402.5,271.5 Z"/></g>
    <g><path fill="#323945" d="M 136.5,282.5 C 160.331,282.162 171.164,293.829 169,317.5C 163.016,332.078 152.182,338.245 136.5,336C 120.51,329.854 114.01,318.354 117,301.5C 120.773,292.225 127.273,285.891 136.5,282.5 Z"/></g>
    <g><path fill="#323945" d="M 404.5,282.5 C 426.873,281.707 437.706,292.374 437,314.5C 432.35,330.756 421.517,337.923 404.5,336C 389.239,330.977 382.406,320.477 384,304.5C 387.25,293.753 394.083,286.419 404.5,282.5 Z"/></g>
    <g><path fill="#bdcedd" d="M 138.5,294.5 C 155.205,294.926 160.705,302.926 155,318.5C 149.096,324.972 142.262,326.139 134.5,322C 128.885,317.032 127.052,310.865 129,303.5C 131.406,299.592 134.572,296.592 138.5,294.5 Z"/></g>
    <g><path fill="#bdcedc" d="M 406.5,294.5 C 421.826,294.323 427.66,301.657 424,316.5C 417.459,325.221 409.626,326.554 400.5,320.5C 392.452,309.5 394.452,300.833 406.5,294.5 Z"/></g>
    <g><path d="M 360.5,314.5 C 361.451,315.919 361.784,317.585 361.5,319.5C 343.326,319.83 325.326,319.497 307.5,318.5C 325.167,318.5 342.833,318.5 360.5,318.5C 360.5,317.167 360.5,315.833 360.5,314.5 Z"/></g>
  </symbol>
  <symbol id="car-6" xmlns:xlink="http://www.w3.org/1999/xlink" viewBox="0 0 512.000000 512.000000">
    <g><path fill="#ffffff" d="M 282.5,176.5 C 282.735,175.903 283.235,175.57 284,175.5C 298.438,185.6 312.604,196.1 326.5,207C 315.5,207.667 304.5,207.667 293.5,207C 289.907,196.714 286.24,186.547 282.5,176.5 Z"/></g>
    <g><path d="M 119.5,223.5 C 211.173,223.117 302.84,223.617 394.5,225C 419.002,225.167 443.169,228 467,233.5C 476.096,235.37 482.763,240.37 487,248.5C 488.428,259.879 485.595,270.045 478.5,279C 474.381,279.143 470.381,279.81 466.5,281C 463.52,284.047 462.853,287.547 464.5,291.5C 457.541,299.236 453.708,297.903 453,287.5C 443.01,264.585 425.51,254.085 400.5,256C 375.178,261.819 361.511,277.652 359.5,303.5C 300.833,303.5 242.167,303.5 183.5,303.5C 182.404,281.138 171.404,265.971 150.5,258C 122.395,251.636 102.229,261.469 90,287.5C 88.5217,292.743 87.6884,298.076 87.5,303.5C 72.4374,306.588 59.4374,302.922 48.5,292.5C 55.1552,290.335 61.8219,288.169 68.5,286C 71.6008,282.498 72.1008,278.665 70,274.5C 68.8289,273.107 67.3289,272.273 65.5,272C 53.4861,271.833 41.4861,271.333 29.5,270.5C 23.6697,261.839 19.1697,252.505 16,242.5C 15.3333,240.5 15.3333,238.5 16,236.5C 18.4075,234.044 21.2409,232.211 24.5,231C 28.8693,230.158 33.2026,229.158 37.5,228C 64.9496,225.705 92.283,224.205 119.5,223.5 Z"/></g>
    <g><path fill="#ffffff" d="M 44.5,239.5 C 49.9302,239.161 55.2636,239.661 60.5,241C 63.7694,244.453 64.2694,248.286 62,252.5C 60.8289,253.893 59.3289,254.727 57.5,255C 52.3822,255.888 47.3822,255.555 42.5,254C 38.062,248.373 38.7287,243.54 44.5,239.5 Z"/></g>
    <g><path d="M 188.5,247.5 C 219.502,247.333 250.502,247.5 281.5,248C 287.448,250.433 288.948,254.6 286,260.5C 284.829,261.893 283.329,262.727 281.5,263C 250.5,263.667 219.5,263.667 188.5,263C 181.889,257.798 181.889,252.631 188.5,247.5 Z"/></g>
    <g><path d="M 308.5,247.5 C 323.504,247.333 338.504,247.5 353.5,248C 358.599,249.695 360.432,253.195 359,258.5C 358.065,261.102 356.232,262.602 353.5,263C 338.5,263.667 323.5,263.667 308.5,263C 301.889,257.798 301.889,252.631 308.5,247.5 Z"/></g>
    <g><path fill="#6d636b" d="M 128.5,271.5 C 155.339,270.838 168.172,283.838 167,310.5C 161.916,326.551 150.916,334.884 134,335.5C 114.484,332.979 104.317,321.812 103.5,302C 105.114,286.248 113.447,276.081 128.5,271.5 Z"/></g>
    <g><path fill="#6d636b" d="M 400.5,271.5 C 427.339,270.838 440.172,283.838 439,310.5C 433.916,326.551 422.916,334.884 406,335.5C 386.484,332.979 376.317,321.812 375.5,302C 377.114,286.248 385.447,276.081 400.5,271.5 Z"/></g>
    <g><path fill="#cbc7cf" d="M 130.5,287.5 C 146.678,287.168 153.178,294.834 150,310.5C 144.039,319.283 136.206,321.449 126.5,317C 116.083,305.501 117.416,295.667 130.5,287.5 Z"/></g>
    <g><path fill="#cbc7cf" d="M 402.5,287.5 C 418.678,287.168 425.178,294.834 422,310.5C 416.039,319.283 408.206,321.449 398.5,317C 388.083,305.501 389.416,295.667 402.5,287.5 Z"/></g>
  </symbol>
  <symbol id="car-7" xmlns:xlink="http://www.w3.org/1999/xlink" viewBox="0 0 512.000000 512.000000">
    <g><path d="M 492.5,239.5 C 482.066,242.004 477.899,248.67 480,259.5C 482.01,268.709 487.51,272.376 496.5,270.5C 495.597,273.391 495.264,276.391 495.5,279.5C 486.494,279.334 477.494,279.5 468.5,280C 466.333,280.833 464.833,282.333 464,284.5C 463.066,292.605 463.399,300.605 465,308.5C 465.903,309.701 467.069,310.535 468.5,311C 475.826,311.5 483.159,311.666 490.5,311.5C 490.358,314.617 489.024,317.117 486.5,319C 472.241,321.159 457.908,322.659 443.5,323.5C 450.553,305.152 448.22,288.152 436.5,272.5C 447.006,271.32 449.673,266.153 444.5,257C 431.265,255.537 417.932,255.037 404.5,255.5C 400.5,255.5 396.5,255.5 392.5,255.5C 379.734,255.039 367.067,255.539 354.5,257C 349.327,266.153 351.994,271.32 362.5,272.5C 349.889,289.772 348.222,308.105 357.5,327.5C 297.5,327.5 237.5,327.5 177.5,327.5C 186.778,308.105 185.111,289.772 172.5,272.5C 183.006,271.32 185.673,266.153 180.5,257C 167.265,255.537 153.932,255.037 140.5,255.5C 136.5,255.5 132.5,255.5 128.5,255.5C 115.734,255.039 103.067,255.539 90.5,257C 85.327,266.153 87.9937,271.32 98.5,272.5C 85.8886,289.772 84.2219,308.105 93.5,327.5C 74.9657,327.814 56.4657,327.481 38,326.5C 25.4455,322.729 17.9455,314.396 15.5,301.5C 18.1019,299.19 21.1019,297.357 24.5,296C 33.1667,295.667 41.8333,295.333 50.5,295C 55.5352,291.987 56.7019,287.82 54,282.5C 53.0975,281.299 51.9308,280.465 50.5,280C 41.8333,279.667 33.1667,279.333 24.5,279C 21.1019,277.643 18.1019,275.81 15.5,273.5C 18.1029,260.801 24.4363,250.301 34.5,242C 51.352,229.576 70.0187,220.909 90.5,216C 121.782,184.027 159.782,165.36 204.5,160C 231.5,159.333 258.5,159.333 285.5,160C 291.684,162.848 297.351,166.515 302.5,171C 315.78,184.588 328.113,198.921 339.5,214C 364.83,213.745 390.163,213.745 415.5,214C 439.321,214.231 462.321,218.565 484.5,227C 488.051,230.601 490.717,234.768 492.5,239.5 Z"/></g>
    <g><path fill="#ffffff" d="M 207.5,175.5 C 231.502,175.333 255.502,175.5 279.5,176C 291.742,186.24 302.575,197.74 312,210.5C 312.667,211.833 312.667,213.167 312,214.5C 273.238,215.663 234.405,215.83 195.5,215C 191.671,204.558 188.338,193.892 185.5,183C 185.759,181.739 186.426,180.739 187.5,180C 194.299,178.464 200.965,176.964 207.5,175.5 Z"/></g>
    <g><path fill="#ffffff" d="M 165.5,186.5 C 168.547,185.855 170.713,186.855 172,189.5C 173.667,195.833 175.333,202.167 177,208.5C 177.758,210.769 177.591,212.936 176.5,215C 159.593,215.825 142.759,215.658 126,214.5C 125.333,212.833 125.333,211.167 126,209.5C 138.196,200.152 151.363,192.486 165.5,186.5 Z"/></g>
    <g><path fill="#bbc8c8" d="M 492.5,239.5 C 497.609,240.43 501.109,243.43 503,248.5C 503.667,253.167 503.667,257.833 503,262.5C 501.726,265.936 499.559,268.603 496.5,270.5C 487.51,272.376 482.01,268.709 480,259.5C 477.899,248.67 482.066,242.004 492.5,239.5 Z"/></g>
    <g><path fill="#ffffff" d="M 128.5,255.5 C 116.785,258.027 106.785,263.694 98.5,272.5C 87.9937,271.32 85.327,266.153 90.5,257C 103.067,255.539 115.734,255.039 128.5,255.5 Z"/></g>
    <g><path fill="#ffffff" d="M 140.5,255.5 C 153.932,255.037 167.265,255.537 180.5,257C 185.673,266.153 183.006,271.32 172.5,272.5C 163.742,263.123 153.076,257.456 140.5,255.5 Z"/></g>
    <g><path fill="#ffffff" d="M 292.5,255.5 C 302.172,255.334 311.839,255.5 321.5,256C 327.462,258.405 328.962,262.571 326,268.5C 323.215,274.573 320.048,280.406 316.5,286C 305.907,287.595 295.24,287.928 284.5,287C 280.139,284.774 278.639,281.274 280,276.5C 283,270.5 286,264.5 289,258.5C 290.145,257.364 291.312,256.364 292.5,255.5 Z"/></g>
    <g><path fill="#ffffff" d="M 392.5,255.5 C 380.785,258.027 370.785,263.694 362.5,272.5C 351.994,271.32 349.327,266.153 354.5,257C 367.067,255.539 379.734,255.039 392.5,255.5 Z"/></g>
    <g><path fill="#ffffff" d="M 404.5,255.5 C 417.932,255.037 431.265,255.537 444.5,257C 449.673,266.153 447.006,271.32 436.5,272.5C 427.742,263.123 417.076,257.456 404.5,255.5 Z"/></g>
    <g><path fill="#464a51" d="M 128.5,255.5 C 132.5,255.5 136.5,255.5 140.5,255.5C 153.076,257.456 163.742,263.123 172.5,272.5C 185.111,289.772 186.778,308.105 177.5,327.5C 165.611,346.938 148.278,354.771 125.5,351C 111.386,347.784 100.719,339.951 93.5,327.5C 84.2219,308.105 85.8886,289.772 98.5,272.5C 106.785,263.694 116.785,258.027 128.5,255.5 Z"/></g>
    <g><path fill="#464a51" d="M 392.5,255.5 C 396.5,255.5 400.5,255.5 404.5,255.5C 417.076,257.456 427.742,263.123 436.5,272.5C 448.22,288.152 450.553,305.152 443.5,323.5C 432.318,345.592 414.318,354.759 389.5,351C 375.386,347.784 364.719,339.951 357.5,327.5C 348.222,308.105 349.889,289.772 362.5,272.5C 370.785,263.694 380.785,258.027 392.5,255.5 Z"/></g>
    <g><path fill="#bbc8c8" d="M 15.5,273.5 C 18.1019,275.81 21.1019,277.643 24.5,279C 33.1667,279.333 41.8333,279.667 50.5,280C 51.9308,280.465 53.0975,281.299 54,282.5C 56.7019,287.82 55.5352,291.987 50.5,295C 41.8333,295.333 33.1667,295.667 24.5,296C 21.1019,297.357 18.1019,299.19 15.5,301.5C 11.6895,303.31 7.68953,303.81 3.5,303C 1.64977,302.31 0.316435,301.144 -0.5,299.5C -0.5,291.5 -0.5,283.5 -0.5,275.5C 0.316435,273.856 1.64977,272.69 3.5,272C 7.68953,271.19 11.6895,271.69 15.5,273.5 Z"/></g>
    <g><path fill="#bbc8c8" d="M 495.5,279.5 C 499.514,279.334 503.514,279.501 507.5,280C 509.35,280.69 510.684,281.856 511.5,283.5C 511.5,291.5 511.5,299.5 511.5,307.5C 510.684,309.144 509.35,310.31 507.5,311C 501.843,311.499 496.176,311.666 490.5,311.5C 483.159,311.666 475.826,311.5 468.5,311C 467.069,310.535 465.903,309.701 465,308.5C 463.399,300.605 463.066,292.605 464,284.5C 464.833,282.333 466.333,280.833 468.5,280C 477.494,279.5 486.494,279.334 495.5,279.5 Z"/></g>
    <g><path fill="#dbe0e1" d="M 130.5,287.5 C 146.667,287.157 153.167,294.824 150,310.5C 144.109,319.573 136.276,321.74 126.5,317C 119.203,310.662 117.703,303.162 122,294.5C 124.441,291.546 127.275,289.213 130.5,287.5 Z"/></g>
    <g><path fill="#dbe0e1" d="M 394.5,287.5 C 410.667,287.157 417.167,294.824 414,310.5C 408.109,319.573 400.276,321.74 390.5,317C 383.203,310.662 381.703,303.162 386,294.5C 388.441,291.546 391.275,289.213 394.5,287.5 Z"/></g>
  </symbol>
  <symbol viewBox="0 0 24 24" id="finish-flag">
    <path opacity="0.5" fill-rule="evenodd" clip-rule="evenodd" d="M6.5 1.75C6.5 1.33579 6.16421 1 5.75 1C5.33579 1 5 1.33579 5 1.75V21.75C5 22.1642 5.33579 22.5 5.75 22.5C6.16421 22.5 6.5 22.1642 6.5 21.75V13.6V3.6V1.75Z"></path>
    <path d="M13.5582 3.87333L13.1449 3.70801C11.5821 3.08288 9.8712 2.9258 8.22067 3.25591L6.5 3.60004V13.6L8.22067 13.2559C9.8712 12.9258 11.5821 13.0829 13.1449 13.708C14.8385 14.3854 16.7024 14.5119 18.472 14.0695L18.5721 14.0445C19.1582 13.898 19.4361 13.2269 19.1253 12.7089L17.5647 10.1078C17.2232 9.53867 17.0524 9.25409 17.0119 8.94455C16.9951 8.81543 16.9951 8.68466 17.0119 8.55553C17.0524 8.24599 17.2232 7.96141 17.5647 7.39225L18.8432 5.26136C19.1778 4.70364 18.6711 4.01976 18.0401 4.17751C16.5513 4.54971 14.9831 4.44328 13.5582 3.87333Z"></path>
  </symbol>
</svg>